<?xml version="1.0" encoding="utf-8"?>
<!-- Generator: Adobe Illustrator 26.5.0, SVG Export Plug-In . SVG Version: 6.00 Build 0)  -->
<svg version="1.1" id="Layer_1" xmlns="http://www.w3.org/2000/svg" xmlns:xlink="http://www.w3.org/1999/xlink" x="0px" y="0px"
	 viewBox="0 0 468 60" style="enable-background:new 0 0 468 60;" xml:space="preserve">
<style type="text/css">
	.st0{fill:#0081C5;}
</style>
<path class="st0" d="M379.07,42.13c0.42,0,0.64-0.31,0.64-0.92V18.05c0-0.61-0.21-0.92-0.64-0.92v-0.92h5.72v0.92
	c-0.18,0-0.27,0.17-0.27,0.51c0,0.27,0.22,0.75,0.67,1.43l9.6,15.2V18.05c0-0.61-0.29-0.92-0.87-0.92v-0.92h5.05v0.92
	c-0.42,0-0.63,0.31-0.63,0.92v23.16c0,0.61,0.21,0.92,0.63,0.92v0.92h-5.42v-0.92c0.29,0,0.44-0.15,0.44-0.46
	c0-0.24-0.18-0.63-0.54-1.17l-10.21-16.22v16.94c0,0.61,0.26,0.92,0.77,0.92v0.92h-4.95V42.13z"/>
<path class="st0" d="M408,25.72c0-0.61-0.21-0.91-0.64-0.91h-5.02v4.79h3.17c0.23,0,0.4-0.04,0.52-0.12
	c0.11-0.08,0.16-0.29,0.16-0.65h0.37v5.07h-0.41c0.04-0.35-0.01-0.57-0.16-0.65c-0.15-0.08-0.36-0.12-0.64-0.12h-3.01v5.65h5.27
	c0.16,0,0.3-0.09,0.41-0.26s0.16-0.41,0.16-0.69h0.37v5.03h-0.37c0-0.29-0.05-0.45-0.16-0.48c-0.11-0.03-0.25-0.05-0.41-0.05h-7.56
	v-0.86c0.07,0,0.14-0.06,0.21-0.17c0.07-0.11,0.1-0.3,0.1-0.55v-17.9c0-0.26-0.03-0.44-0.1-0.55c-0.07-0.11-0.14-0.17-0.21-0.17
	v-0.86h7.31c0.43,0,0.64-0.29,0.64-0.86h0.37v5.31H408z"/>
<path class="st0" d="M411.1,22.09c0-0.27-0.06-0.47-0.17-0.59c-0.11-0.12-0.22-0.18-0.34-0.18v-0.92h6.87
	c0.56,0,1.04,0.15,1.45,0.46c0.4,0.31,0.74,0.72,1.02,1.25c0.27,0.53,0.47,1.13,0.61,1.81c0.13,0.68,0.2,1.4,0.2,2.14
	c0,0.61-0.04,1.18-0.13,1.71c-0.09,0.53-0.2,1-0.34,1.43c-0.14,0.43-0.3,0.81-0.46,1.15c-0.17,0.34-0.34,0.61-0.52,0.82v0.05
	c0.21,0.2,0.41,0.48,0.62,0.82c0.21,0.34,0.39,0.75,0.55,1.22c0.16,0.48,0.29,1.02,0.4,1.63c0.1,0.61,0.15,1.28,0.15,1.99
	c0,0.82-0.07,1.58-0.2,2.3c-0.13,0.71-0.34,1.34-0.63,1.89c-0.29,0.54-0.66,0.98-1.13,1.3c-0.46,0.32-1.02,0.48-1.67,0.48h-6.78
	v-0.92c0.12,0,0.23-0.06,0.34-0.18c0.11-0.12,0.17-0.31,0.17-0.59V22.09z M417.16,29.29c0.35,0,0.68-0.17,0.99-0.51
	c0.31-0.34,0.46-1.04,0.46-2.09c0-0.54-0.05-0.98-0.13-1.3c-0.09-0.32-0.2-0.58-0.33-0.77c-0.13-0.19-0.29-0.31-0.46-0.36
	c-0.18-0.05-0.35-0.08-0.53-0.08h-3.93v5.1H417.16z M417.11,39.08c0.68,0,1.14-0.25,1.39-0.77s0.38-1.22,0.38-2.14
	c0-1.05-0.16-1.84-0.49-2.35c-0.32-0.51-0.87-0.77-1.63-0.77h-3.53v6.02H417.11z"/>
<path class="st0" d="M422.08,41.94c0.36,0,0.6-0.06,0.74-0.18c0.13-0.12,0.2-0.31,0.2-0.59V22.09c0-0.27-0.07-0.47-0.2-0.59
	c-0.13-0.12-0.38-0.18-0.74-0.18v-0.92h5.09v0.92c-0.62,0-0.94,0.25-0.94,0.77v19.08c0,0.51,0.31,0.77,0.94,0.77v0.92h-5.09V41.94z"
	/>
<path class="st0" d="M438.77,35.41l-0.47-2.5h-2.41l-0.43,2.5h-2.34v-0.77c0.29,0,0.51-0.12,0.67-0.36
	c0.16-0.24,0.27-0.49,0.34-0.77l1.67-7.3c0.22-1.05,0-1.58-0.67-1.58v-0.77h4.42v0.77c-0.29,0-0.5,0.15-0.64,0.46
	c-0.13,0.31-0.14,0.7-0.03,1.17l1.41,7.24h2.47c0.04-0.2,0.08-0.54,0.12-0.99s0.06-0.95,0.07-1.48c0.01-0.53,0.02-1.04,0.04-1.53
	c0.01-0.49,0.02-0.89,0.02-1.2c0-1.26-0.12-2.42-0.35-3.49s-0.59-2.01-1.05-2.81c-0.47-0.8-1.06-1.43-1.77-1.89
	c-0.71-0.46-1.55-0.69-2.51-0.69c-1,0-1.9,0.28-2.68,0.84c-0.78,0.56-1.44,1.32-1.97,2.29s-0.94,2.11-1.22,3.44
	c-0.28,1.32-0.42,2.75-0.42,4.27c0,3.12,0.56,5.62,1.69,7.48c1.12,1.87,2.68,2.8,4.67,2.8c0.71,0,1.38-0.08,2.01-0.25
	c0.62-0.17,1.16-0.36,1.61-0.56c0.54-0.24,1.02-0.51,1.44-0.82c0.22-0.27,0.37-0.51,0.44-0.71c0.07-0.2,0.04-0.48-0.07-0.82
	l0.47-0.51l1.77,4.19l-0.54,0.62c-0.18-0.28-0.35-0.41-0.5-0.41s-0.31,0.09-0.47,0.26c-0.47,0.45-1,0.85-1.61,1.19
	c-0.54,0.31-1.18,0.59-1.94,0.83c-0.76,0.24-1.64,0.36-2.64,0.36c-1.67,0-3.07-0.37-4.2-1.12c-1.13-0.75-2.03-1.74-2.71-2.98
	c-0.68-1.24-1.17-2.69-1.47-4.35c-0.3-1.66-0.45-3.41-0.45-5.25c0-2.24,0.21-4.23,0.63-5.98c0.42-1.75,1.02-3.22,1.79-4.43
	c0.77-1.21,1.7-2.13,2.79-2.78c1.09-0.65,2.31-0.97,3.65-0.97c1.16,0,2.24,0.24,3.23,0.71s1.85,1.21,2.58,2.21
	c0.72,1,1.29,2.27,1.69,3.82c0.4,1.54,0.6,3.37,0.6,5.47c0,1.19-0.04,2.39-0.12,3.61c-0.08,1.22-0.17,2.39-0.29,3.51H438.77z
	 M436.16,31.12h1.88l-0.94-4.95L436.16,31.12z"/>
<path class="st0" d="M449.96,41.99c0.11,0,0.21-0.06,0.32-0.17s0.16-0.3,0.16-0.56V25.15h-4.12c-0.17,0-0.33,0.06-0.48,0.19
	c-0.15,0.13-0.22,0.34-0.22,0.63h-0.57v-5.56h0.57c0,0.45,0.07,0.76,0.22,0.92c0.15,0.16,0.31,0.24,0.48,0.24h11.29
	c0.17,0,0.33-0.08,0.48-0.24c0.15-0.16,0.22-0.47,0.22-0.92h0.57v5.56h-0.57c0-0.29-0.07-0.5-0.22-0.63
	c-0.15-0.13-0.31-0.19-0.48-0.19h-4.12v16.11c0,0.48,0.19,0.73,0.57,0.73v0.87h-4.09V41.99z"/>
</svg>
